<svg width="103" height="48" viewBox="0 0 103 48" fill="none" xmlns="http://www.w3.org/2000/svg">
<path d="M34.1664 47.9755H0V44.9727H34.1664V47.9755ZM0.632453 47.3442H33.5351V45.6074H0.632453V47.3442Z" fill="#BC563C"/>
<path d="M31.2712 43.2193H2.89844V40.2188H31.2712V43.2193ZM3.52652 42.588H30.6355V40.8501H3.52652V42.588Z" fill="#BC563C"/>
<path d="M32.6766 45.5854H1.49219V42.5859H32.6766V45.5854ZM2.12357 44.954H32.0452V43.2173H2.12464L2.12357 44.954Z" fill="#BC563C"/>
<path d="M8.63638 15.0572H2.89844V14.4258H8.63638V15.0572Z" fill="#BC563C"/>
<path d="M31.2692 15.0572H25.5312V14.4258H31.2692V15.0572Z" fill="#BC563C"/>
<path d="M31.2692 16.5312H25.5312V17.1626H31.2692V16.5312Z" fill="#BC563C"/>
<path d="M31.2692 38.1133H25.5312V38.7446H31.2692V38.1133Z" fill="#BC563C"/>
<path d="M30.5344 38.7467H26.2188V16.5312H30.5344V38.7467ZM26.85 38.1142H29.9031V17.1626H26.85V38.1142Z" fill="#BC563C"/>
<path d="M26.85 20.4326H26.2188C26.2188 19.585 27.2881 18.876 28.3225 18.1912C29.0271 17.7258 29.9031 17.1447 29.9031 16.793H30.5344C30.5344 17.4844 29.6715 18.0557 28.6709 18.7188C27.8593 19.2551 26.85 19.9247 26.85 20.4326Z" fill="#BC563C"/>
<path d="M26.85 24.0313H26.2188C26.2188 23.1836 27.2881 22.4747 28.3225 21.7898C29.0271 21.3234 29.9031 20.7434 29.9031 20.3906H30.5344C30.5344 21.0832 29.6715 21.6544 28.6709 22.3164C27.8593 22.8538 26.85 23.5222 26.85 24.0313Z" fill="#BC563C"/>
<path d="M26.85 27.6329H26.2188C26.2188 26.7841 27.2881 26.0763 28.3225 25.3914C29.0271 24.925 29.9031 24.345 29.9031 23.9922H30.5344C30.5344 24.6836 29.6715 25.256 28.6709 25.9179C27.8593 26.4553 26.85 27.1239 26.85 27.6329Z" fill="#BC563C"/>
<path d="M26.85 31.2294H26.2188C26.2188 30.3818 27.2881 29.6729 28.3225 28.988C29.0271 28.5227 29.9031 27.9416 29.9031 27.5898H30.5344C30.5344 28.2813 29.6715 28.8525 28.6709 29.5156C27.8593 30.0519 26.85 30.7215 26.85 31.2294Z" fill="#BC563C"/>
<path d="M26.85 34.8282H26.2188C26.2188 33.9805 27.2881 33.2716 28.3225 32.5868C29.0271 32.1203 29.9031 31.5403 29.9031 31.1875H30.5344C30.5344 31.88 29.6715 32.4513 28.6709 33.1132C27.8593 33.6506 26.85 34.3192 26.85 34.8282Z" fill="#BC563C"/>
<path d="M26.85 38.4297H26.2188C26.2188 37.581 27.2881 36.8732 28.3225 36.1883C29.0271 35.7219 29.9031 35.1419 29.9031 34.7891H30.5344C30.5344 35.4805 29.6715 36.0529 28.6709 36.7148C27.8593 37.2523 26.85 37.9207 26.85 38.4297Z" fill="#BC563C"/>
<path d="M8.63635 16.5312H2.89844V17.1626H8.63635V16.5312Z" fill="#BC563C"/>
<path d="M8.63635 38.1133H2.89844V38.7446H8.63635V38.1133Z" fill="#BC563C"/>
<path d="M3.63281 16.5312H7.94958V38.7467H3.63281V16.5312ZM7.31712 17.1626H4.2642V38.112H7.31712V17.1626Z" fill="#BC563C"/>
<path d="M7.31712 20.4326H7.94958C7.94958 19.585 6.87916 18.876 5.84474 18.1912C5.14129 17.7258 4.2642 17.1447 4.2642 16.793H3.63281C3.63281 17.4844 4.49678 18.0557 5.49625 18.7188C6.30784 19.2551 7.31712 19.9247 7.31712 20.4326Z" fill="#BC563C"/>
<path d="M7.31712 24.0313H7.94958C7.94958 23.1836 6.87916 22.4747 5.84474 21.7898C5.14129 21.3234 4.2642 20.7434 4.2642 20.3906H3.63281C3.63281 21.0832 4.49678 21.6544 5.49625 22.3164C6.30784 22.8538 7.31712 23.5222 7.31712 24.0313Z" fill="#BC563C"/>
<path d="M7.31712 27.6329H7.94958C7.94958 26.7841 6.87916 26.0763 5.84474 25.3914C5.14129 24.925 4.2642 24.345 4.2642 23.9922H3.63281C3.63281 24.6836 4.49678 25.256 5.49625 25.9179C6.30784 26.4553 7.31712 27.1239 7.31712 27.6329Z" fill="#BC563C"/>
<path d="M7.31712 31.2294H7.94958C7.94958 30.3818 6.87916 29.6729 5.84474 28.988C5.14129 28.5227 4.2642 27.9416 4.2642 27.5898H3.63281C3.63281 28.2813 4.49678 28.8525 5.49625 29.5156C6.30784 30.0519 7.31712 30.7215 7.31712 31.2294Z" fill="#BC563C"/>
<path d="M7.31712 34.8282H7.94958C7.94958 33.9805 6.87916 33.2716 5.84474 32.5868C5.14129 32.1203 4.2642 31.5403 4.2642 31.1875H3.63281C3.63281 31.88 4.49678 32.4513 5.49625 33.1132C6.30784 33.6506 7.31712 34.3192 7.31712 34.8282Z" fill="#BC563C"/>
<path d="M7.31712 38.4297H7.94958C7.94958 37.581 6.87916 36.8732 5.84474 36.1883C5.14129 35.7219 4.2642 35.1419 4.2642 34.7891H3.63281C3.63281 35.4805 4.49678 36.0529 5.49625 36.7148C6.30784 37.2523 7.31712 37.9207 7.31712 38.4297Z" fill="#BC563C"/>
<path d="M17.1057 10.207L9.70312 22.5294L17.0587 26.8702L24.4613 22.5305L17.1057 10.207ZM23.2401 21.7167L17.3973 19.0777L17.4181 11.9624L23.2401 21.7167ZM16.7649 19.0952L10.9276 21.7222L16.7857 11.9711L16.7649 19.0952ZM10.8238 22.4617L16.7638 19.7888L16.7452 25.956L10.8238 22.4617ZM17.3952 19.7746L23.3406 22.4595L17.3766 25.9549L17.3952 19.7746Z" fill="#BC563C"/>
<path d="M17.0562 27.9992L9.6875 23.4813L17.0552 34.6142L24.4927 23.4727L17.0562 27.9992ZM17.3948 28.5333L22.3812 25.4956L17.3948 32.967V28.5333ZM16.7635 28.5606V33.0282L11.7869 25.5098L16.7635 28.5606Z" fill="#BC563C"/>
<path d="M17.0897 6.74177C16.1959 6.7409 15.339 6.38549 14.7071 5.75352C14.0751 5.12154 13.7196 4.26466 13.7188 3.37091C13.7196 2.47717 14.0751 1.62028 14.7071 0.988307C15.339 0.356334 16.1959 0.000867574 17.0897 0C17.9833 0.00115609 18.84 0.356716 19.4719 0.988627C20.1039 1.62054 20.4594 2.47726 20.4606 3.37091C20.4594 4.26457 20.1039 5.12129 19.4719 5.7532C18.84 6.38511 17.9833 6.74061 17.0897 6.74177ZM17.0897 0.605145C16.3564 0.606012 15.6534 0.897677 15.1349 1.41616C14.6164 1.93465 14.3248 2.63766 14.3239 3.37091C14.3248 4.10416 14.6164 4.80712 15.1349 5.32561C15.6534 5.84409 16.3564 6.13576 17.0897 6.13663C17.8228 6.13576 18.5257 5.84407 19.044 5.32555C19.5623 4.80703 19.8537 4.10406 19.8543 3.37091C19.8528 2.63833 19.561 1.93616 19.0428 1.41835C18.5246 0.900541 17.8222 0.609318 17.0897 0.608452V0.605145Z" fill="#BC563C"/>
<path d="M17.091 5.44766C16.5406 5.44766 16.0128 5.22901 15.6235 4.83979C15.2343 4.45058 15.0156 3.9227 15.0156 3.37227C15.0156 2.82184 15.2343 2.29395 15.6235 1.90474C16.0128 1.51553 16.5406 1.29688 17.091 1.29688C17.6414 1.29688 18.1693 1.51553 18.5585 1.90474C18.9477 2.29395 19.1664 2.82184 19.1664 3.37227C19.1664 3.9227 18.9477 4.45058 18.5585 4.83979C18.1693 5.22901 17.6414 5.44766 17.091 5.44766ZM17.091 1.95226C16.7144 1.95226 16.3532 2.10187 16.0869 2.36817C15.8206 2.63447 15.671 2.99566 15.671 3.37227C15.671 3.74888 15.8206 4.11006 16.0869 4.37636C16.3532 4.64266 16.7144 4.79227 17.091 4.79227C17.4676 4.79227 17.8288 4.64266 18.0951 4.37636C18.3614 4.11006 18.511 3.74888 18.511 3.37227C18.5104 2.99604 18.3606 2.63539 18.0944 2.36956C17.8281 2.10373 17.4672 1.95445 17.091 1.95445V1.95226Z" fill="#BC563C"/>
<path d="M17.0855 3.96002C17.4088 3.96002 17.671 3.69789 17.671 3.37454C17.671 3.05119 17.4088 2.78906 17.0855 2.78906C16.7621 2.78906 16.5 3.05119 16.5 3.37454C16.5 3.69789 16.7621 3.96002 17.0855 3.96002Z" fill="#BC563C"/>
<path d="M26.5904 5.23285C24.7717 3.40498 22.4629 2.14248 19.9426 1.59766C20.0851 1.82626 20.1996 2.07123 20.2834 2.32729C22.5029 2.89681 24.5276 4.05498 26.1437 5.67958C28.478 8.00051 29.8221 11.1358 29.8936 14.4268H26.9979C26.9291 12.3424 26.2064 10.3325 24.9322 8.68152C23.658 7.03053 21.8968 5.82213 19.8979 5.22741C19.7709 5.41993 19.6245 5.59887 19.4609 5.76151C21.4409 6.2889 23.1914 7.45502 24.441 9.07887C25.6906 10.7027 26.3693 12.6935 26.3719 14.7425V15.0582H30.5304V14.7425C30.5351 12.9756 30.1893 11.2254 29.513 9.59303C28.8367 7.96069 27.8433 6.4787 26.5904 5.23285Z" fill="#BC563C"/>
<path d="M14.2722 5.22741C12.2732 5.82213 10.5119 7.03053 9.2377 8.68152C7.96349 10.3325 7.24091 12.3424 7.17213 14.4268H4.27633C4.34823 11.1359 5.69225 8.00077 8.02624 5.67958C9.64243 4.0552 11.6671 2.89706 13.8865 2.32729C13.9707 2.07119 14.0855 1.82623 14.2284 1.59766C11.7078 2.14246 9.39862 3.40494 7.5795 5.23285C6.32681 6.47879 5.33368 7.96085 4.65757 9.59318C3.98146 11.2255 3.63586 12.9757 3.64067 14.7425V15.0582H7.79903V14.7425C7.80191 12.6934 8.48097 10.7026 9.73074 9.07876C10.9805 7.45494 12.7312 6.28887 14.7112 5.76151C14.5469 5.59903 14.3998 5.42008 14.2722 5.22741Z" fill="#BC563C"/>
<path d="M14.5958 2.16406C14.3555 2.2114 14.1162 2.26562 13.8781 2.32679C13.7672 2.66527 13.7108 3.01923 13.7109 3.37542C13.7099 4.03386 13.9034 4.67796 14.267 5.22691C14.4731 5.16574 14.6817 5.11112 14.8929 5.06306C14.5189 4.57996 14.316 3.98632 14.3161 3.37542C14.3155 2.95556 14.4112 2.54117 14.5958 2.16406Z" fill="#BC563C"/>
<path d="M17.0906 0.609051C17.4567 0.609364 17.8191 0.682538 18.1566 0.824313C18.4942 0.966089 18.8002 1.17364 19.0567 1.43485C19.3571 1.47854 19.6553 1.53315 19.9502 1.59651C19.648 1.1096 19.2266 0.707823 18.7258 0.42915C18.2251 0.150478 17.6615 0.00410816 17.0884 0.00390625C16.5153 0.00400484 15.9517 0.150308 15.4509 0.42899C14.9501 0.707672 14.5287 1.10953 14.2266 1.59651C14.5215 1.53315 14.8197 1.47854 15.12 1.43485C15.377 1.17296 15.6837 0.964996 16.022 0.823193C16.3604 0.681391 16.7237 0.608601 17.0906 0.609051Z" fill="#BC563C"/>
<path d="M17.0878 6.13991C16.4971 6.13858 15.9226 5.94707 15.4493 5.59375C15.1988 5.63817 14.9527 5.69206 14.7109 5.75541C15.0235 6.06751 15.3944 6.31497 15.8026 6.48365C16.2108 6.65233 16.6482 6.73893 17.0899 6.73849C17.5316 6.73893 17.9691 6.65233 18.3773 6.48365C18.7855 6.31497 19.1565 6.06751 19.469 5.75541C19.2265 5.69206 18.9797 5.63853 18.7306 5.59375C18.2561 5.94796 17.6799 6.13952 17.0878 6.13991Z" fill="#BC563C"/>
<path d="M19.8501 3.37542C19.8507 3.98642 19.6479 4.58023 19.2734 5.06306C19.4853 5.11112 19.6944 5.16574 19.9004 5.22691C20.2636 4.67774 20.4569 4.03378 20.4564 3.37542C20.4562 3.01918 20.3995 2.66521 20.2882 2.32679C20.0515 2.26562 19.8123 2.2114 19.5705 2.16406C19.7551 2.54117 19.8507 2.95556 19.8501 3.37542Z" fill="#BC563C"/>
<path d="M56.895 22.7024L57.0242 16.7847C55.2801 19.2423 50.6939 21.8616 47.2057 22.2497V6.72773C47.5933 6.72773 48.3361 6.82474 48.8206 7.01877C50.5001 7.66551 51.8566 9.25005 54.4404 12.0311H54.4727V7.14812H51.7274C48.0455 7.14812 47.0765 5.33722 47.0765 3.49399C47.0765 1.68309 48.2069 0.454273 49.9187 0.454273C52.8255 0.454273 54.7633 2.91192 55.9906 5.43423H56.0552L55.8292 0.0662231H40.5201C41.3599 1.1657 42.0058 3.36464 42.0058 6.76007V16.0086C42.0058 19.404 41.3599 21.6029 40.5201 22.7024H56.895Z" fill="#BC563C"/>
<path d="M59.3557 5.56358C60.6799 3.3323 63.1053 0.842321 64.5587 0.583623C65.7214 0.389597 66.7467 0.906996 66.7467 2.78257V16.0086C66.7467 19.404 66.1008 21.6029 65.2611 22.7024H73.4C72.5603 21.6029 71.9143 19.404 71.9143 16.0086V2.78257C71.9143 0.874659 73.4652 0.389597 74.5956 0.583623C75.7906 0.777647 78.1753 2.75023 79.8547 5.56358H79.9193L79.3057 0.0662231H59.9048L59.2911 5.56358H59.3557Z" fill="#BC563C"/>
<path d="M101.235 6.76007C101.235 3.36464 101.881 1.1657 102.721 0.0662231H94.5819C95.4216 1.1657 96.0676 3.36464 96.0676 6.76007V9.25005H88.7684V6.76007C88.7684 3.36464 89.4143 1.1657 90.2541 0.0662231H82.1151C82.9548 1.1657 83.6008 3.36464 83.6008 6.76007V16.0086C83.6008 19.404 82.9548 21.6029 82.1151 22.7024H90.2541C89.4143 21.6029 88.7684 19.404 88.7684 16.0086V9.70277H96.0676V16.0086C96.0676 19.404 95.4216 21.6029 94.5819 22.7024H102.721C101.881 21.6029 101.235 19.404 101.235 16.0086V6.76007Z" fill="#BC563C"/>
<path d="M50.58 47.7414C55.683 47.7414 59.7524 44.0873 59.7524 39.7864C59.7524 35.5179 56.4258 33.6423 53.4221 33.0926C55.3923 31.9608 57.0718 30.9583 57.0718 28.8887C57.0718 25.946 54.0035 25.1053 50.0309 25.1053H40.4062C41.246 26.2047 41.8919 28.4037 41.8919 31.7991V41.0476C41.8919 44.443 41.246 46.642 40.4062 47.7414H50.58ZM43.1515 45.3161C44.3142 39.7218 45.5738 34.1274 46.6397 28.5007C47.0595 26.3017 47.867 25.5256 49.062 25.5256C51.1936 25.5256 51.8073 26.9162 51.8073 29.0181C51.8073 31.2494 50.7737 33.4806 48.5452 36.197C47.0918 37.9432 44.2819 41.759 43.1515 45.3161ZM46.9949 41.6297C47.1887 39.269 47.9316 37.5228 49.2558 35.9706C50.3539 34.8712 51.6458 34.0627 52.9377 33.3836C53.9066 34.4184 54.4557 36.6497 54.4557 39.172C54.4557 42.7615 53.2284 47.3211 50.1924 47.3211C49.1589 47.3211 48.3191 46.739 47.7378 45.7689C47.1241 44.7017 46.8657 43.2465 46.9949 41.6297Z" fill="#BC563C"/>
<path d="M60.5606 36.4234C60.5606 43.3112 66.0835 48.0001 72.9952 48.0001C79.0671 48.0001 82.2969 43.7639 83.5888 40.2392L83.4596 40.1745C81.877 43.8286 78.3566 44.54 76.5479 44.54C70.476 44.54 65.5345 39.9158 65.5345 33.1896C65.5345 28.8241 67.6661 25.5256 71.7356 25.5256C76.6771 25.5256 80.7143 30.9583 82.1677 35.6473H82.2323V27.3365C79.8745 25.8814 76.774 24.8466 73.415 24.8466C66.2127 24.8466 60.5606 29.5678 60.5606 36.4234Z" fill="#BC563C"/>
<path d="M89.2582 47.7414C87.9986 46.2539 86.3192 42.5675 86.3192 36.9731V28.9211C90.9377 36.003 96.7189 44.5077 98.1723 47.7414H100.627V35.8736C100.627 30.2792 101.951 26.5928 102.92 25.1053H97.8817C98.8506 26.5928 100.175 30.2792 100.175 35.8736V40.4009L90.1949 25.1053H83.8968L85.867 28.2097V36.9731C85.867 42.5675 84.7366 46.2539 83.8968 47.7414H89.2582Z" fill="#BC563C"/>
</svg>
